PathFileType	4	(X/Y/Z)	C:/Users/beibeiliu/ov580/test_trc\sequence.15_training_dense_right.trc
DataRate	CameraRate	NumFrames	NumMarkers	Units	OrigDataRate	OrigDataStartFrame	OrigNumFrames
120	120	12	19	mm	120	44	348
Frame#	Time	ThumbCMC			ThumbMCP			ThumbIP			ThumbTip			IndexMCP			IndexPIP			IndexTip			MiddleMCP			MiddlePIP			MiddleTip			RingMCP			RingPIP			RingTip			PinkyMCP			PinkyPIP			PinkyTip			BackHand1			BackHand2			BackHand3	
		X0	Y0	Z0	X1	Y1	Z1	X2	Y2	Z2	X3	Y3	Z3	X4	Y4	Z4	X5	Y5	Z5	X6	Y6	Z6	X7	Y7	Z7	X8	Y8	Z8	X9	Y9	Z9	X10	Y10	Z10	X11	Y11	Z11	X12	Y12	Z12	X13	Y13	Z13	X14	Y14	Z14	X15	Y15	Z15	X16	Y16	Z16	X17	Y17	Z17	X18	Y18	Z18	
43	0.358333	162.996	-16.5608	-15.7109	161.665	-30.7467	-42.4287	165.642	-35.4627	-65.9525	178.365	-39.5084	-84.3207	176.751	15.4912	-69.691	174.59	21.4965	-96.4374	175.607	24.2916	-114.231	193.895	-3.42225	-77.7742	188.674	-32.792	-84.3693	184.811	-37.5938	-53.4917	210.326	-7.44197	-74.2395	201.168	-35.6947	-75.8564	197.993	-40.6123	-50.6787	233.153	3.89419	-57.4143	234.295	8.27275	-73.1686	241.942	16.9899	-86.5204	210.25	9.1391	-23.8767	210.372	6.6676	-2.20018	187.165	9.63334	-13.9168	
44	0.366667	167.461	-15.408	-18.091	161.682	-30.3519	-41.6738	166.169	-35.4155	-65.2314	179.005	-39.9911	-85.3178	174.822	18.6031	-74.0179	174.171	21.1648	-92.8895	179.986	25.467	-115.555	192.623	-4.08188	-80.4185	192.331	-32.8254	-83.294	185.536	-36.0705	-52.0424	210.542	-9.57262	-76.9898	201.195	-35.2631	-76.205	197.752	-38.8908	-50.7287	228.305	3.9563	-57.905	236.371	9.71267	-74.4242	238.355	19.2588	-87.834	211.318	12.1709	-27.5153	210.739	4.31486	0.86855	184.516	10.2266	-13.4342	
45	0.375	166.998	-15.2786	-17.1673	160.97	-29.4786	-45.1644	163.963	-34.4037	-68.9053	179.217	-39.2134	-89.3283	177.08	17.7649	-69.2477	173.796	21.8178	-93.016	177.071	27.5188	-116.82	191.984	-1.63923	-79.8848	189.457	-29.5105	-86.4725	186.775	-35.8298	-52.7351	209.308	-5.50464	-72.9075	201.913	-33.2877	-76.4505	195.955	-38.0174	-50.5205	232.49	6.28362	-57.8444	233.111	9.67925	-71.2912	244.22	21.1589	-84.1919	208.693	10.4975	-25.1461	213.132	6.3419	2.25997	181.906	12.079	-15.8882	
46	0.383333	163.615	-15.3671	-17.6044	161.417	-28.323	-44.2279	165.245	-33.8176	-71.3783	178.053	-37.7037	-85.419	173.139	18.9193	-70.7082	177.068	23.5641	-92.7357	179.825	29.779	-117.483	193.898	-0.434196	-79.0112	190.198	-29.5261	-85.326	187.199	-35.4188	-54.0427	209.54	-3.62758	-73.3316	202.069	-31.3337	-77.1337	195.816	-35.6709	-50.6538	234.416	8.17224	-57.5656	239.258	13.3196	-74.0035	240.381	22.9298	-85.0766	213.666	11.3746	-28.5015	212.573	8.52737	-2.04211	185.938	12.6679	-15.2879	
47	0.391667	167.156	-14.2265	-14.6189	159.444	-28.951	-45.7606	163.911	-33.6295	-69.0937	181.474	-34.5229	-86.291	172.403	19.8734	-69.6122	178.818	26.3075	-93.2657	175.52	31.5082	-113.923	197.159	0.118242	-80.5836	192.263	-29.8738	-83.9699	184.908	-33.9795	-52.8629	211.961	-2.02646	-73.0637	206.169	-31.5047	-76.2004	197.456	-34.4677	-52.1554	232.534	9.25495	-56.9438	234.187	15.2053	-72.5148	239.858	26.227	-83.1362	213.288	13.9522	-24.2188	209.115	8.66559	2.14721	184.27	12.5356	-11.8149	
48	0.4	164.824	-15.2309	-16.8443	160.088	-30.0708	-45.6013	167.911	-32.6344	-71.5854	180.855	-35.9233	-86.6721	175.692	23.3634	-74.5479	173.539	27.0904	-91.1527	178.958	32.7622	-112.151	198.282	1.9746	-80.8923	194.038	-25.8798	-86.4493	187.414	-33.1131	-54.8979	210.995	0.443002	-74.9019	208.304	-25.5072	-79.5417	200.615	-31.5297	-48.4918	232.604	10.9112	-54.5095	240.073	17.722	-69.2326	240.769	28.4877	-82.3052	211.97	14.0863	-22.5866	210.186	11.3008	0.00618364	182.944	13.7204	-13.3078	
49	0.408333	167.676	-14.256	-19.3978	164.952	-27.7919	-50.9897	170.022	-33.6678	-70.4697	187.159	-33.6653	-88.8556	176.259	21.5395	-71.7765	177.751	28.9804	-96.6647	179.826	35.5361	-117.106	195.101	6.01222	-78.1721	200.623	-25.9403	-84.7221	192.028	-32.0074	-56.971	216.274	1.78795	-74.9606	208.996	-22.7291	-80.1904	201.775	-30.8391	-50.6202	229.901	14.3363	-53.5168	240.194	20.6139	-68.7303	241.707	31.7745	-80.0126	210.585	17.3488	-24.6488	206.095	10.8963	-0.813077	182.28	15.1145	-13.3762	
50	0.416667	165.243	-16.113	-23.5403	166.13	-32.2559	-51.2379	174.525	-34.7113	-71.3346	192.48	-34.2432	-91.4495	173.78	23.1751	-74.8612	175.747	29.1156	-96.1069	178.966	35.0186	-115.36	197.717	4.35847	-83.5719	200.204	-22.2488	-87.9879	198.24	-30.3033	-55.5392	218.22	4.7853	-74.6509	214.781	-20.8046	-80.0726	206.836	-29.7664	-51.1995	231.227	17.8368	-54.6784	235.652	25.3743	-70.0508	246.668	34.009	-80.4963	206.26	19.9825	-27.8926	203.889	15.1964	-1.75802	182.102	14.116	-14.5321	
51	0.425	165.244	-17.8823	-22.2132	171.574	-29.8564	-53.436	181.083	-34.2842	-71.4644	198.328	-34.2288	-90.1043	177.333	21.1186	-74.5057	180.195	25.5285	-95.8178	179.326	32.8707	-118.912	200.645	6.67655	-80.2	205.252	-21.9329	-88.3422	195.091	-30.0792	-55.8456	221.254	6.27137	-73.1704	215.107	-22.7408	-78.1287	209.031	-28.633	-50.7336	232.47	20.8721	-55.9856	240.755	24.7661	-67.1344	247.083	38.1837	-83.8385	206.54	22.1198	-28.5966	206.212	17.2308	-0.949426	178.762	16.4723	-17.4622	
52	0.433333	166.234	-14.3273	-25.1287	173.097	-32.4407	-52.9417	186.502	-34.4956	-72.0599	201.893	-38.4537	-88.0985	181.441	20.6487	-81.5345	181.431	24.6963	-103.062	189.239	30.817	-124.834	206.348	4.74314	-83.9452	207.793	-23.3421	-87.4634	201.824	-28.5744	-54.6741	221.317	4.18208	-76.1273	220.493	-21.8387	-76.7448	210.613	-27.8454	-49.5169	233.618	20.9469	-55.2092	241.328	25.8847	-70.1611	248.658	35.5314	-83.1764	209.269	24.7374	-28.2369	201.117	18.5055	-0.769489	181.731	17.869	-20.5875	
53	0.441667	167.899	-11.3695	-25.9589	174.293	-32.8209	-51.9686	187.869	-38.3436	-68.7392	209.995	-40.6817	-86.2984	185.114	18.2216	-81.4307	190.846	20.414	-101.577	196.868	23.3849	-123.187	207.39	3.59518	-83.5833	214.464	-27.8196	-82.9497	205.368	-29.2712	-53.4518	228.082	1.92999	-75.4274	226.238	-23.7662	-74.0225	208.717	-26.7817	-48.9606	239.118	19.9848	-53.3762	248.643	22.4165	-66.6323	252.293	31.5432	-82.158	210.022	26.7728	-27.8454	201.927	24.1635	-4.10034	179.505	22.2341	-24.6458	
54	0.45	172.148	-6.78428	-26.5993	178.843	-29.1655	-47.839	192.977	-38.3595	-68.2591	210.66	-44.6079	-78.2975	193.593	16.6145	-87.8085	198.065	16.2018	-109.371	204.046	17.2301	-126.021	214.503	-0.974953	-84.6005	217.095	-31.0376	-79.5414	203.978	-30.8366	-53.8861	229.613	-2.49224	-74.3701	230.344	-27.3582	-69.2804	213.548	-29.1831	-47.0676	244.727	18.3175	-56.6294	254.015	18.5163	-69.9718	265.255	26.5868	-84.4178	211.802	26.6681	-33.9284	205.259	27.9868	-6.03523	183.31	25.9726	-30.9256	
